<?xml version="1.0" standalone="no"?>
<!DOCTYPE svg PUBLIC "-//W3C//DTD SVG 20010904//EN"
 "http://www.w3.org/TR/2001/REC-SVG-20010904/DTD/svg10.dtd">
<svg version="1.0" xmlns="http://www.w3.org/2000/svg"
 width="1056.000000pt" height="307.000000pt" viewBox="0 0 1056.000000 307.000000"
 preserveAspectRatio="xMidYMid meet">

<g transform="translate(0.000000,307.000000) scale(0.100000,-0.100000)"
fill="#000000" stroke="none">
<path d="M9040 3053 c-125 -21 -266 -80 -376 -159 -116 -82 -236 -234 -284
-362 -28 -72 -285 -866 -306 -942 -26 -97 -24 -299 5 -405 44 -163 126 -301
250 -417 119 -113 186 -145 548 -264 370 -120 424 -134 551 -134 238 0 439 84
613 259 136 136 162 195 340 741 77 239 147 468 155 508 71 369 -113 745 -449
918 -49 25 -90 44 -91 42 -2 -1 -23 -61 -46 -133 -24 -71 -45 -135 -47 -141
-2 -5 19 -20 47 -33 234 -106 374 -378 319 -621 -23 -106 -284 -891 -315 -951
-85 -163 -258 -276 -448 -294 -101 -10 -150 2 -526 125 -371 121 -414 141
-508 245 -108 118 -165 292 -145 438 12 84 270 890 316 987 42 88 158 203 249
248 93 46 194 66 288 57 150 -13 128 -29 177 125 24 74 39 137 35 141 -23 22
-262 37 -352 22z"/>
<path d="M9547 2973 c-9 -15 -88 -275 -85 -278 2 -1 67 -23 146 -48 97 -31
145 -41 148 -34 2 7 24 71 48 144 l44 131 -143 46 c-156 50 -152 49 -158 39z"/>
<path d="M635 2553 c-148 -21 -331 -98 -422 -178 -69 -61 -136 -163 -169 -260
-37 -107 -46 -311 -19 -432 58 -262 238 -455 492 -525 74 -20 107 -22 593 -28
499 -6 517 -7 575 -28 164 -61 248 -189 248 -377 0 -191 -89 -321 -266 -386
-60 -22 -75 -23 -499 -27 l-438 -3 0 -155 0 -154 368 0 c506 0 625 16 802 103
96 47 207 147 254 230 90 154 114 392 61 597 -37 145 -145 298 -266 381 -71
48 -130 74 -229 102 -70 19 -110 21 -590 27 -506 6 -516 6 -573 29 -158 63
-240 191 -240 376 0 223 136 374 366 404 48 7 322 11 703 11 l624 0 0 150 0
150 -672 -1 c-370 -1 -686 -4 -703 -6z"/>
<path d="M9055 2321 c-16 -10 -38 -27 -47 -37 -20 -23 -278 -810 -278 -848 0
-99 104 -176 199 -148 75 23 82 38 222 467 81 249 129 413 129 439 0 111 -131
185 -225 127z"/>
<path d="M9651 2132 c-19 -9 -43 -29 -54 -43 -10 -14 -77 -206 -148 -425 -139
-426 -143 -447 -101 -503 31 -43 81 -71 125 -71 48 0 108 32 130 69 32 55 267
796 267 843 0 81 -68 148 -150 148 -19 0 -50 -8 -69 -18z"/>
</g>
</svg>
